<mxfile host="app.diagrams.net" agent="Mozilla/5.0 (Windows NT 10.0; Win64; x64) AppleWebKit/537.36 (KHTML, like Gecko) Chrome/127.0.0.0 Safari/537.36" version="24.7.4">
  <diagram name="Page-1" id="Q4H8x3UVQv742gqpCuKe">
    <mxGraphModel dx="2085" dy="1755" grid="1" gridSize="10" guides="1" tooltips="1" connect="1" arrows="1" fold="1" page="1" pageScale="1" pageWidth="850" pageHeight="1100" math="0" shadow="0">
      <root>
        <mxCell id="0" />
        <mxCell id="1" parent="0" />
        <mxCell id="Yaqtqmwa5ixIcnzpUoV--2" value="Ingredient" style="swimlane;fontStyle=0;childLayout=stackLayout;horizontal=1;startSize=30;horizontalStack=0;resizeParent=1;resizeParentMax=0;resizeLast=0;collapsible=1;marginBottom=0;whiteSpace=wrap;html=1;" parent="1" vertex="1">
          <mxGeometry x="560" y="134" width="140" height="180" as="geometry" />
        </mxCell>
        <mxCell id="Yaqtqmwa5ixIcnzpUoV--3" value="Id" style="text;strokeColor=none;fillColor=none;align=left;verticalAlign=middle;spacingLeft=4;spacingRight=4;overflow=hidden;points=[[0,0.5],[1,0.5]];portConstraint=eastwest;rotatable=0;whiteSpace=wrap;html=1;" parent="Yaqtqmwa5ixIcnzpUoV--2" vertex="1">
          <mxGeometry y="30" width="140" height="30" as="geometry" />
        </mxCell>
        <mxCell id="Yaqtqmwa5ixIcnzpUoV--4" value="Name" style="text;strokeColor=none;fillColor=none;align=left;verticalAlign=middle;spacingLeft=4;spacingRight=4;overflow=hidden;points=[[0,0.5],[1,0.5]];portConstraint=eastwest;rotatable=0;whiteSpace=wrap;html=1;" parent="Yaqtqmwa5ixIcnzpUoV--2" vertex="1">
          <mxGeometry y="60" width="140" height="30" as="geometry" />
        </mxCell>
        <mxCell id="Yaqtqmwa5ixIcnzpUoV--5" value="Description" style="text;strokeColor=none;fillColor=none;align=left;verticalAlign=middle;spacingLeft=4;spacingRight=4;overflow=hidden;points=[[0,0.5],[1,0.5]];portConstraint=eastwest;rotatable=0;whiteSpace=wrap;html=1;" parent="Yaqtqmwa5ixIcnzpUoV--2" vertex="1">
          <mxGeometry y="90" width="140" height="30" as="geometry" />
        </mxCell>
        <mxCell id="Yaqtqmwa5ixIcnzpUoV--6" value="ImageUrl" style="text;strokeColor=none;fillColor=none;align=left;verticalAlign=middle;spacingLeft=4;spacingRight=4;overflow=hidden;points=[[0,0.5],[1,0.5]];portConstraint=eastwest;rotatable=0;whiteSpace=wrap;html=1;" parent="Yaqtqmwa5ixIcnzpUoV--2" vertex="1">
          <mxGeometry y="120" width="140" height="30" as="geometry" />
        </mxCell>
        <mxCell id="qhwGtVTXp7jjjUZzAFPc-24" value="CategoryId" style="text;strokeColor=none;fillColor=none;align=left;verticalAlign=middle;spacingLeft=4;spacingRight=4;overflow=hidden;points=[[0,0.5],[1,0.5]];portConstraint=eastwest;rotatable=0;whiteSpace=wrap;html=1;" vertex="1" parent="Yaqtqmwa5ixIcnzpUoV--2">
          <mxGeometry y="150" width="140" height="30" as="geometry" />
        </mxCell>
        <mxCell id="Yaqtqmwa5ixIcnzpUoV--8" value="Recipe" style="swimlane;fontStyle=0;childLayout=stackLayout;horizontal=1;startSize=30;horizontalStack=0;resizeParent=1;resizeParentMax=0;resizeLast=0;collapsible=1;marginBottom=0;whiteSpace=wrap;html=1;" parent="1" vertex="1">
          <mxGeometry x="10" y="79" width="140" height="240" as="geometry" />
        </mxCell>
        <mxCell id="Yaqtqmwa5ixIcnzpUoV--9" value="Id" style="text;strokeColor=none;fillColor=none;align=left;verticalAlign=middle;spacingLeft=4;spacingRight=4;overflow=hidden;points=[[0,0.5],[1,0.5]];portConstraint=eastwest;rotatable=0;whiteSpace=wrap;html=1;" parent="Yaqtqmwa5ixIcnzpUoV--8" vertex="1">
          <mxGeometry y="30" width="140" height="30" as="geometry" />
        </mxCell>
        <mxCell id="zqVdqwS3-9bIMo2_GxM2-8" value="Name" style="text;strokeColor=none;fillColor=none;align=left;verticalAlign=middle;spacingLeft=4;spacingRight=4;overflow=hidden;points=[[0,0.5],[1,0.5]];portConstraint=eastwest;rotatable=0;whiteSpace=wrap;html=1;" parent="Yaqtqmwa5ixIcnzpUoV--8" vertex="1">
          <mxGeometry y="60" width="140" height="30" as="geometry" />
        </mxCell>
        <mxCell id="Yaqtqmwa5ixIcnzpUoV--11" value="Description" style="text;strokeColor=none;fillColor=none;align=left;verticalAlign=middle;spacingLeft=4;spacingRight=4;overflow=hidden;points=[[0,0.5],[1,0.5]];portConstraint=eastwest;rotatable=0;whiteSpace=wrap;html=1;" parent="Yaqtqmwa5ixIcnzpUoV--8" vertex="1">
          <mxGeometry y="90" width="140" height="30" as="geometry" />
        </mxCell>
        <mxCell id="Yaqtqmwa5ixIcnzpUoV--73" value="CookingTime" style="text;strokeColor=none;fillColor=none;align=left;verticalAlign=middle;spacingLeft=4;spacingRight=4;overflow=hidden;points=[[0,0.5],[1,0.5]];portConstraint=eastwest;rotatable=0;whiteSpace=wrap;html=1;" parent="Yaqtqmwa5ixIcnzpUoV--8" vertex="1">
          <mxGeometry y="120" width="140" height="30" as="geometry" />
        </mxCell>
        <mxCell id="Yaqtqmwa5ixIcnzpUoV--74" value="ServingSize" style="text;strokeColor=none;fillColor=none;align=left;verticalAlign=middle;spacingLeft=4;spacingRight=4;overflow=hidden;points=[[0,0.5],[1,0.5]];portConstraint=eastwest;rotatable=0;whiteSpace=wrap;html=1;" parent="Yaqtqmwa5ixIcnzpUoV--8" vertex="1">
          <mxGeometry y="150" width="140" height="30" as="geometry" />
        </mxCell>
        <mxCell id="Yaqtqmwa5ixIcnzpUoV--82" value="ImageUrl" style="text;strokeColor=none;fillColor=none;align=left;verticalAlign=middle;spacingLeft=4;spacingRight=4;overflow=hidden;points=[[0,0.5],[1,0.5]];portConstraint=eastwest;rotatable=0;whiteSpace=wrap;html=1;" parent="Yaqtqmwa5ixIcnzpUoV--8" vertex="1">
          <mxGeometry y="180" width="140" height="30" as="geometry" />
        </mxCell>
        <mxCell id="qhwGtVTXp7jjjUZzAFPc-23" value="UserAccountId (Author)" style="text;strokeColor=none;fillColor=none;align=left;verticalAlign=middle;spacingLeft=4;spacingRight=4;overflow=hidden;points=[[0,0.5],[1,0.5]];portConstraint=eastwest;rotatable=0;whiteSpace=wrap;html=1;" vertex="1" parent="Yaqtqmwa5ixIcnzpUoV--8">
          <mxGeometry y="210" width="140" height="30" as="geometry" />
        </mxCell>
        <mxCell id="Yaqtqmwa5ixIcnzpUoV--13" value="Step" style="swimlane;fontStyle=0;childLayout=stackLayout;horizontal=1;startSize=30;horizontalStack=0;resizeParent=1;resizeParentMax=0;resizeLast=0;collapsible=1;marginBottom=0;whiteSpace=wrap;html=1;" parent="1" vertex="1">
          <mxGeometry x="20" y="396" width="140" height="150" as="geometry" />
        </mxCell>
        <mxCell id="Yaqtqmwa5ixIcnzpUoV--14" value="Id" style="text;strokeColor=none;fillColor=none;align=left;verticalAlign=middle;spacingLeft=4;spacingRight=4;overflow=hidden;points=[[0,0.5],[1,0.5]];portConstraint=eastwest;rotatable=0;whiteSpace=wrap;html=1;" parent="Yaqtqmwa5ixIcnzpUoV--13" vertex="1">
          <mxGeometry y="30" width="140" height="30" as="geometry" />
        </mxCell>
        <mxCell id="Yaqtqmwa5ixIcnzpUoV--15" value="Content" style="text;strokeColor=none;fillColor=none;align=left;verticalAlign=middle;spacingLeft=4;spacingRight=4;overflow=hidden;points=[[0,0.5],[1,0.5]];portConstraint=eastwest;rotatable=0;whiteSpace=wrap;html=1;" parent="Yaqtqmwa5ixIcnzpUoV--13" vertex="1">
          <mxGeometry y="60" width="140" height="30" as="geometry" />
        </mxCell>
        <mxCell id="Yaqtqmwa5ixIcnzpUoV--75" value="StepOrder" style="text;strokeColor=none;fillColor=none;align=left;verticalAlign=middle;spacingLeft=4;spacingRight=4;overflow=hidden;points=[[0,0.5],[1,0.5]];portConstraint=eastwest;rotatable=0;whiteSpace=wrap;html=1;" parent="Yaqtqmwa5ixIcnzpUoV--13" vertex="1">
          <mxGeometry y="90" width="140" height="30" as="geometry" />
        </mxCell>
        <mxCell id="Yaqtqmwa5ixIcnzpUoV--81" value="ImageUrl" style="text;strokeColor=none;fillColor=none;align=left;verticalAlign=middle;spacingLeft=4;spacingRight=4;overflow=hidden;points=[[0,0.5],[1,0.5]];portConstraint=eastwest;rotatable=0;whiteSpace=wrap;html=1;" parent="Yaqtqmwa5ixIcnzpUoV--13" vertex="1">
          <mxGeometry y="120" width="140" height="30" as="geometry" />
        </mxCell>
        <mxCell id="Yaqtqmwa5ixIcnzpUoV--18" value="IngredientRecipe" style="swimlane;fontStyle=0;childLayout=stackLayout;horizontal=1;startSize=30;horizontalStack=0;resizeParent=1;resizeParentMax=0;resizeLast=0;collapsible=1;marginBottom=0;whiteSpace=wrap;html=1;" parent="1" vertex="1">
          <mxGeometry x="291" y="149" width="140" height="120" as="geometry" />
        </mxCell>
        <mxCell id="Yaqtqmwa5ixIcnzpUoV--19" value="Id" style="text;strokeColor=none;fillColor=none;align=left;verticalAlign=middle;spacingLeft=4;spacingRight=4;overflow=hidden;points=[[0,0.5],[1,0.5]];portConstraint=eastwest;rotatable=0;whiteSpace=wrap;html=1;" parent="Yaqtqmwa5ixIcnzpUoV--18" vertex="1">
          <mxGeometry y="30" width="140" height="30" as="geometry" />
        </mxCell>
        <mxCell id="Yaqtqmwa5ixIcnzpUoV--76" value="IngredientQuantity" style="text;strokeColor=none;fillColor=none;align=left;verticalAlign=middle;spacingLeft=4;spacingRight=4;overflow=hidden;points=[[0,0.5],[1,0.5]];portConstraint=eastwest;rotatable=0;whiteSpace=wrap;html=1;" parent="Yaqtqmwa5ixIcnzpUoV--18" vertex="1">
          <mxGeometry y="60" width="140" height="30" as="geometry" />
        </mxCell>
        <mxCell id="Yaqtqmwa5ixIcnzpUoV--77" value="IngredientQuantityUnit" style="text;strokeColor=none;fillColor=none;align=left;verticalAlign=middle;spacingLeft=4;spacingRight=4;overflow=hidden;points=[[0,0.5],[1,0.5]];portConstraint=eastwest;rotatable=0;whiteSpace=wrap;html=1;" parent="Yaqtqmwa5ixIcnzpUoV--18" vertex="1">
          <mxGeometry y="90" width="140" height="30" as="geometry" />
        </mxCell>
        <mxCell id="Yaqtqmwa5ixIcnzpUoV--23" value="" style="endArrow=none;html=1;rounded=0;exitX=0;exitY=0.5;exitDx=0;exitDy=0;entryX=1;entryY=0.5;entryDx=0;entryDy=0;" parent="1" source="Yaqtqmwa5ixIcnzpUoV--4" target="Yaqtqmwa5ixIcnzpUoV--19" edge="1">
          <mxGeometry relative="1" as="geometry">
            <mxPoint x="-270" y="319" as="sourcePoint" />
            <mxPoint x="-110" y="319" as="targetPoint" />
          </mxGeometry>
        </mxCell>
        <mxCell id="Yaqtqmwa5ixIcnzpUoV--24" value="N" style="resizable=0;html=1;whiteSpace=wrap;align=right;verticalAlign=bottom;" parent="Yaqtqmwa5ixIcnzpUoV--23" connectable="0" vertex="1">
          <mxGeometry x="1" relative="1" as="geometry">
            <mxPoint x="24" y="-1" as="offset" />
          </mxGeometry>
        </mxCell>
        <mxCell id="Yaqtqmwa5ixIcnzpUoV--25" value="1" style="text;html=1;align=center;verticalAlign=middle;resizable=0;points=[];autosize=1;strokeColor=none;fillColor=none;" parent="1" vertex="1">
          <mxGeometry x="520" y="184" width="30" height="30" as="geometry" />
        </mxCell>
        <mxCell id="Yaqtqmwa5ixIcnzpUoV--26" value="" style="endArrow=none;html=1;rounded=0;entryX=0;entryY=0.5;entryDx=0;entryDy=0;" parent="1" source="Yaqtqmwa5ixIcnzpUoV--8" target="Yaqtqmwa5ixIcnzpUoV--19" edge="1">
          <mxGeometry relative="1" as="geometry">
            <mxPoint x="10" y="232" as="sourcePoint" />
            <mxPoint x="-110" y="232" as="targetPoint" />
          </mxGeometry>
        </mxCell>
        <mxCell id="Yaqtqmwa5ixIcnzpUoV--27" value="N" style="resizable=0;html=1;whiteSpace=wrap;align=right;verticalAlign=bottom;" parent="Yaqtqmwa5ixIcnzpUoV--26" connectable="0" vertex="1">
          <mxGeometry x="1" relative="1" as="geometry">
            <mxPoint x="-6" y="-1" as="offset" />
          </mxGeometry>
        </mxCell>
        <mxCell id="Yaqtqmwa5ixIcnzpUoV--32" value="1" style="edgeLabel;html=1;align=center;verticalAlign=middle;resizable=0;points=[];fontSize=12;" parent="Yaqtqmwa5ixIcnzpUoV--26" vertex="1" connectable="0">
          <mxGeometry x="-0.8235" y="1" relative="1" as="geometry">
            <mxPoint y="-11" as="offset" />
          </mxGeometry>
        </mxCell>
        <mxCell id="Yaqtqmwa5ixIcnzpUoV--29" value="" style="endArrow=none;html=1;rounded=0;entryX=0.5;entryY=0;entryDx=0;entryDy=0;" parent="1" source="Yaqtqmwa5ixIcnzpUoV--8" target="Yaqtqmwa5ixIcnzpUoV--13" edge="1">
          <mxGeometry relative="1" as="geometry">
            <mxPoint x="30" y="205" as="sourcePoint" />
            <mxPoint x="-130" y="205" as="targetPoint" />
          </mxGeometry>
        </mxCell>
        <mxCell id="Yaqtqmwa5ixIcnzpUoV--30" value="N" style="resizable=0;html=1;whiteSpace=wrap;align=right;verticalAlign=bottom;" parent="Yaqtqmwa5ixIcnzpUoV--29" connectable="0" vertex="1">
          <mxGeometry x="1" relative="1" as="geometry">
            <mxPoint x="14" y="-1" as="offset" />
          </mxGeometry>
        </mxCell>
        <mxCell id="Yaqtqmwa5ixIcnzpUoV--31" value="1" style="edgeLabel;html=1;align=center;verticalAlign=middle;resizable=0;points=[];" parent="Yaqtqmwa5ixIcnzpUoV--29" vertex="1" connectable="0">
          <mxGeometry x="-0.8133" y="4" relative="1" as="geometry">
            <mxPoint x="2" y="3" as="offset" />
          </mxGeometry>
        </mxCell>
        <mxCell id="Yaqtqmwa5ixIcnzpUoV--33" value="UserAccount" style="swimlane;fontStyle=0;childLayout=stackLayout;horizontal=1;startSize=30;horizontalStack=0;resizeParent=1;resizeParentMax=0;resizeLast=0;collapsible=1;marginBottom=0;whiteSpace=wrap;html=1;" parent="1" vertex="1">
          <mxGeometry x="6" y="-160" width="140" height="150" as="geometry" />
        </mxCell>
        <mxCell id="Yaqtqmwa5ixIcnzpUoV--34" value="Id" style="text;strokeColor=none;fillColor=none;align=left;verticalAlign=middle;spacingLeft=4;spacingRight=4;overflow=hidden;points=[[0,0.5],[1,0.5]];portConstraint=eastwest;rotatable=0;whiteSpace=wrap;html=1;" parent="Yaqtqmwa5ixIcnzpUoV--33" vertex="1">
          <mxGeometry y="30" width="140" height="30" as="geometry" />
        </mxCell>
        <mxCell id="Yaqtqmwa5ixIcnzpUoV--35" value="Name" style="text;strokeColor=none;fillColor=none;align=left;verticalAlign=middle;spacingLeft=4;spacingRight=4;overflow=hidden;points=[[0,0.5],[1,0.5]];portConstraint=eastwest;rotatable=0;whiteSpace=wrap;html=1;" parent="Yaqtqmwa5ixIcnzpUoV--33" vertex="1">
          <mxGeometry y="60" width="140" height="30" as="geometry" />
        </mxCell>
        <mxCell id="Yaqtqmwa5ixIcnzpUoV--36" value="Gender" style="text;strokeColor=none;fillColor=none;align=left;verticalAlign=middle;spacingLeft=4;spacingRight=4;overflow=hidden;points=[[0,0.5],[1,0.5]];portConstraint=eastwest;rotatable=0;whiteSpace=wrap;html=1;" parent="Yaqtqmwa5ixIcnzpUoV--33" vertex="1">
          <mxGeometry y="90" width="140" height="30" as="geometry" />
        </mxCell>
        <mxCell id="Yaqtqmwa5ixIcnzpUoV--37" value="DateOfBirth" style="text;strokeColor=none;fillColor=none;align=left;verticalAlign=middle;spacingLeft=4;spacingRight=4;overflow=hidden;points=[[0,0.5],[1,0.5]];portConstraint=eastwest;rotatable=0;whiteSpace=wrap;html=1;" parent="Yaqtqmwa5ixIcnzpUoV--33" vertex="1">
          <mxGeometry y="120" width="140" height="30" as="geometry" />
        </mxCell>
        <mxCell id="Yaqtqmwa5ixIcnzpUoV--39" value="UserLogin" style="swimlane;fontStyle=0;childLayout=stackLayout;horizontal=1;startSize=30;horizontalStack=0;resizeParent=1;resizeParentMax=0;resizeLast=0;collapsible=1;marginBottom=0;whiteSpace=wrap;html=1;" parent="1" vertex="1">
          <mxGeometry x="-270" y="-160" width="155" height="210" as="geometry" />
        </mxCell>
        <mxCell id="Yaqtqmwa5ixIcnzpUoV--40" value="Id" style="text;strokeColor=none;fillColor=none;align=left;verticalAlign=middle;spacingLeft=4;spacingRight=4;overflow=hidden;points=[[0,0.5],[1,0.5]];portConstraint=eastwest;rotatable=0;whiteSpace=wrap;html=1;" parent="Yaqtqmwa5ixIcnzpUoV--39" vertex="1">
          <mxGeometry y="30" width="155" height="30" as="geometry" />
        </mxCell>
        <mxCell id="Yaqtqmwa5ixIcnzpUoV--41" value="Email" style="text;strokeColor=none;fillColor=none;align=left;verticalAlign=middle;spacingLeft=4;spacingRight=4;overflow=hidden;points=[[0,0.5],[1,0.5]];portConstraint=eastwest;rotatable=0;whiteSpace=wrap;html=1;" parent="Yaqtqmwa5ixIcnzpUoV--39" vertex="1">
          <mxGeometry y="60" width="155" height="30" as="geometry" />
        </mxCell>
        <mxCell id="Yaqtqmwa5ixIcnzpUoV--42" value="PasswordHash" style="text;strokeColor=none;fillColor=none;align=left;verticalAlign=middle;spacingLeft=4;spacingRight=4;overflow=hidden;points=[[0,0.5],[1,0.5]];portConstraint=eastwest;rotatable=0;whiteSpace=wrap;html=1;" parent="Yaqtqmwa5ixIcnzpUoV--39" vertex="1">
          <mxGeometry y="90" width="155" height="30" as="geometry" />
        </mxCell>
        <mxCell id="Yaqtqmwa5ixIcnzpUoV--43" value="PasswordSalt" style="text;strokeColor=none;fillColor=none;align=left;verticalAlign=middle;spacingLeft=4;spacingRight=4;overflow=hidden;points=[[0,0.5],[1,0.5]];portConstraint=eastwest;rotatable=0;whiteSpace=wrap;html=1;" parent="Yaqtqmwa5ixIcnzpUoV--39" vertex="1">
          <mxGeometry y="120" width="155" height="30" as="geometry" />
        </mxCell>
        <mxCell id="Yaqtqmwa5ixIcnzpUoV--49" value="RefreshToken" style="text;strokeColor=none;fillColor=none;align=left;verticalAlign=middle;spacingLeft=4;spacingRight=4;overflow=hidden;points=[[0,0.5],[1,0.5]];portConstraint=eastwest;rotatable=0;whiteSpace=wrap;html=1;" parent="Yaqtqmwa5ixIcnzpUoV--39" vertex="1">
          <mxGeometry y="150" width="155" height="30" as="geometry" />
        </mxCell>
        <mxCell id="Yaqtqmwa5ixIcnzpUoV--50" value="RefreshTokenExpireTime" style="text;strokeColor=none;fillColor=none;align=left;verticalAlign=middle;spacingLeft=4;spacingRight=4;overflow=hidden;points=[[0,0.5],[1,0.5]];portConstraint=eastwest;rotatable=0;whiteSpace=wrap;html=1;" parent="Yaqtqmwa5ixIcnzpUoV--39" vertex="1">
          <mxGeometry y="180" width="155" height="30" as="geometry" />
        </mxCell>
        <mxCell id="Yaqtqmwa5ixIcnzpUoV--51" value="Permission" style="swimlane;fontStyle=0;childLayout=stackLayout;horizontal=1;startSize=30;horizontalStack=0;resizeParent=1;resizeParentMax=0;resizeLast=0;collapsible=1;marginBottom=0;whiteSpace=wrap;html=1;" parent="1" vertex="1">
          <mxGeometry x="571" y="-145" width="140" height="120" as="geometry" />
        </mxCell>
        <mxCell id="Yaqtqmwa5ixIcnzpUoV--52" value="Id" style="text;strokeColor=none;fillColor=none;align=left;verticalAlign=middle;spacingLeft=4;spacingRight=4;overflow=hidden;points=[[0,0.5],[1,0.5]];portConstraint=eastwest;rotatable=0;whiteSpace=wrap;html=1;" parent="Yaqtqmwa5ixIcnzpUoV--51" vertex="1">
          <mxGeometry y="30" width="140" height="30" as="geometry" />
        </mxCell>
        <mxCell id="Yaqtqmwa5ixIcnzpUoV--53" value="Name" style="text;strokeColor=none;fillColor=none;align=left;verticalAlign=middle;spacingLeft=4;spacingRight=4;overflow=hidden;points=[[0,0.5],[1,0.5]];portConstraint=eastwest;rotatable=0;whiteSpace=wrap;html=1;" parent="Yaqtqmwa5ixIcnzpUoV--51" vertex="1">
          <mxGeometry y="60" width="140" height="30" as="geometry" />
        </mxCell>
        <mxCell id="Yaqtqmwa5ixIcnzpUoV--54" value="Description" style="text;strokeColor=none;fillColor=none;align=left;verticalAlign=middle;spacingLeft=4;spacingRight=4;overflow=hidden;points=[[0,0.5],[1,0.5]];portConstraint=eastwest;rotatable=0;whiteSpace=wrap;html=1;" parent="Yaqtqmwa5ixIcnzpUoV--51" vertex="1">
          <mxGeometry y="90" width="140" height="30" as="geometry" />
        </mxCell>
        <mxCell id="Yaqtqmwa5ixIcnzpUoV--56" value="UserAccountPermission" style="swimlane;fontStyle=0;childLayout=stackLayout;horizontal=1;startSize=30;horizontalStack=0;resizeParent=1;resizeParentMax=0;resizeLast=0;collapsible=1;marginBottom=0;whiteSpace=wrap;html=1;" parent="1" vertex="1">
          <mxGeometry x="271" y="-115" width="170" height="60" as="geometry">
            <mxRectangle x="380" y="-125" width="170" height="30" as="alternateBounds" />
          </mxGeometry>
        </mxCell>
        <mxCell id="Yaqtqmwa5ixIcnzpUoV--57" value="Id" style="text;strokeColor=none;fillColor=none;align=left;verticalAlign=middle;spacingLeft=4;spacingRight=4;overflow=hidden;points=[[0,0.5],[1,0.5]];portConstraint=eastwest;rotatable=0;whiteSpace=wrap;html=1;" parent="Yaqtqmwa5ixIcnzpUoV--56" vertex="1">
          <mxGeometry y="30" width="170" height="30" as="geometry" />
        </mxCell>
        <mxCell id="Yaqtqmwa5ixIcnzpUoV--60" value="" style="endArrow=none;html=1;rounded=0;" parent="1" source="Yaqtqmwa5ixIcnzpUoV--33" target="Yaqtqmwa5ixIcnzpUoV--56" edge="1">
          <mxGeometry relative="1" as="geometry">
            <mxPoint x="156" y="-10" as="sourcePoint" />
            <mxPoint x="281" y="-10" as="targetPoint" />
          </mxGeometry>
        </mxCell>
        <mxCell id="Yaqtqmwa5ixIcnzpUoV--61" value="N" style="resizable=0;html=1;whiteSpace=wrap;align=right;verticalAlign=bottom;" parent="Yaqtqmwa5ixIcnzpUoV--60" connectable="0" vertex="1">
          <mxGeometry x="1" relative="1" as="geometry">
            <mxPoint x="-6" as="offset" />
          </mxGeometry>
        </mxCell>
        <mxCell id="Yaqtqmwa5ixIcnzpUoV--62" value="1" style="edgeLabel;html=1;align=center;verticalAlign=middle;resizable=0;points=[];fontSize=12;" parent="Yaqtqmwa5ixIcnzpUoV--60" vertex="1" connectable="0">
          <mxGeometry x="-0.7756" y="1" relative="1" as="geometry">
            <mxPoint y="-10" as="offset" />
          </mxGeometry>
        </mxCell>
        <mxCell id="Yaqtqmwa5ixIcnzpUoV--63" value="" style="endArrow=none;html=1;rounded=0;entryX=1;entryY=0.5;entryDx=0;entryDy=0;" parent="1" source="Yaqtqmwa5ixIcnzpUoV--51" target="Yaqtqmwa5ixIcnzpUoV--56" edge="1">
          <mxGeometry relative="1" as="geometry">
            <mxPoint x="156" y="-76" as="sourcePoint" />
            <mxPoint x="281" y="-78" as="targetPoint" />
          </mxGeometry>
        </mxCell>
        <mxCell id="Yaqtqmwa5ixIcnzpUoV--64" value="N" style="resizable=0;html=1;whiteSpace=wrap;align=right;verticalAlign=bottom;" parent="Yaqtqmwa5ixIcnzpUoV--63" connectable="0" vertex="1">
          <mxGeometry x="1" relative="1" as="geometry">
            <mxPoint x="16" as="offset" />
          </mxGeometry>
        </mxCell>
        <mxCell id="Yaqtqmwa5ixIcnzpUoV--65" value="1" style="edgeLabel;html=1;align=center;verticalAlign=middle;resizable=0;points=[];fontSize=12;" parent="Yaqtqmwa5ixIcnzpUoV--63" vertex="1" connectable="0">
          <mxGeometry x="-0.7756" y="1" relative="1" as="geometry">
            <mxPoint y="-10" as="offset" />
          </mxGeometry>
        </mxCell>
        <mxCell id="Yaqtqmwa5ixIcnzpUoV--67" value="" style="endArrow=none;html=1;rounded=0;exitX=1;exitY=0.5;exitDx=0;exitDy=0;entryX=0;entryY=0.5;entryDx=0;entryDy=0;" parent="1" source="Yaqtqmwa5ixIcnzpUoV--41" target="Yaqtqmwa5ixIcnzpUoV--35" edge="1">
          <mxGeometry relative="1" as="geometry">
            <mxPoint x="231" y="160" as="sourcePoint" />
            <mxPoint x="391" y="160" as="targetPoint" />
          </mxGeometry>
        </mxCell>
        <mxCell id="zqVdqwS3-9bIMo2_GxM2-12" value="" style="endArrow=none;html=1;rounded=0;entryX=0.5;entryY=0;entryDx=0;entryDy=0;exitX=0.513;exitY=0.982;exitDx=0;exitDy=0;exitPerimeter=0;" parent="1" source="Yaqtqmwa5ixIcnzpUoV--37" target="Yaqtqmwa5ixIcnzpUoV--8" edge="1">
          <mxGeometry relative="1" as="geometry">
            <mxPoint x="310" y="220" as="sourcePoint" />
            <mxPoint x="78" y="195" as="targetPoint" />
          </mxGeometry>
        </mxCell>
        <mxCell id="zqVdqwS3-9bIMo2_GxM2-13" value="N" style="resizable=0;html=1;whiteSpace=wrap;align=right;verticalAlign=bottom;" parent="zqVdqwS3-9bIMo2_GxM2-12" connectable="0" vertex="1">
          <mxGeometry x="1" relative="1" as="geometry">
            <mxPoint x="17" y="-1" as="offset" />
          </mxGeometry>
        </mxCell>
        <mxCell id="zqVdqwS3-9bIMo2_GxM2-14" value="1" style="edgeLabel;html=1;align=center;verticalAlign=middle;resizable=0;points=[];fontSize=12;" parent="zqVdqwS3-9bIMo2_GxM2-12" vertex="1" connectable="0">
          <mxGeometry x="-0.8235" y="1" relative="1" as="geometry">
            <mxPoint x="6" y="2" as="offset" />
          </mxGeometry>
        </mxCell>
        <mxCell id="qhwGtVTXp7jjjUZzAFPc-7" value="Category" style="swimlane;fontStyle=0;childLayout=stackLayout;horizontal=1;startSize=30;horizontalStack=0;resizeParent=1;resizeParentMax=0;resizeLast=0;collapsible=1;marginBottom=0;whiteSpace=wrap;html=1;" vertex="1" parent="1">
          <mxGeometry x="560" y="396" width="140" height="120" as="geometry" />
        </mxCell>
        <mxCell id="qhwGtVTXp7jjjUZzAFPc-8" value="Id" style="text;strokeColor=none;fillColor=none;align=left;verticalAlign=middle;spacingLeft=4;spacingRight=4;overflow=hidden;points=[[0,0.5],[1,0.5]];portConstraint=eastwest;rotatable=0;whiteSpace=wrap;html=1;" vertex="1" parent="qhwGtVTXp7jjjUZzAFPc-7">
          <mxGeometry y="30" width="140" height="30" as="geometry" />
        </mxCell>
        <mxCell id="qhwGtVTXp7jjjUZzAFPc-9" value="Name" style="text;strokeColor=none;fillColor=none;align=left;verticalAlign=middle;spacingLeft=4;spacingRight=4;overflow=hidden;points=[[0,0.5],[1,0.5]];portConstraint=eastwest;rotatable=0;whiteSpace=wrap;html=1;" vertex="1" parent="qhwGtVTXp7jjjUZzAFPc-7">
          <mxGeometry y="60" width="140" height="30" as="geometry" />
        </mxCell>
        <mxCell id="qhwGtVTXp7jjjUZzAFPc-10" value="Description" style="text;strokeColor=none;fillColor=none;align=left;verticalAlign=middle;spacingLeft=4;spacingRight=4;overflow=hidden;points=[[0,0.5],[1,0.5]];portConstraint=eastwest;rotatable=0;whiteSpace=wrap;html=1;" vertex="1" parent="qhwGtVTXp7jjjUZzAFPc-7">
          <mxGeometry y="90" width="140" height="30" as="geometry" />
        </mxCell>
        <mxCell id="qhwGtVTXp7jjjUZzAFPc-25" value="" style="endArrow=none;html=1;rounded=0;exitX=0.5;exitY=0;exitDx=0;exitDy=0;entryX=0.563;entryY=0.975;entryDx=0;entryDy=0;entryPerimeter=0;" edge="1" parent="1" source="qhwGtVTXp7jjjUZzAFPc-7" target="qhwGtVTXp7jjjUZzAFPc-24">
          <mxGeometry relative="1" as="geometry">
            <mxPoint x="570" y="219" as="sourcePoint" />
            <mxPoint x="441" y="204" as="targetPoint" />
          </mxGeometry>
        </mxCell>
        <mxCell id="qhwGtVTXp7jjjUZzAFPc-26" value="N" style="resizable=0;html=1;whiteSpace=wrap;align=right;verticalAlign=bottom;" connectable="0" vertex="1" parent="qhwGtVTXp7jjjUZzAFPc-25">
          <mxGeometry x="1" relative="1" as="geometry">
            <mxPoint x="20" y="18" as="offset" />
          </mxGeometry>
        </mxCell>
        <mxCell id="qhwGtVTXp7jjjUZzAFPc-27" value="1" style="text;html=1;align=center;verticalAlign=middle;resizable=0;points=[];autosize=1;strokeColor=none;fillColor=none;" vertex="1" parent="1">
          <mxGeometry x="626" y="366" width="30" height="30" as="geometry" />
        </mxCell>
      </root>
    </mxGraphModel>
  </diagram>
</mxfile>
